<svg width="22" height="19" viewBox="0 0 22 19" fill="none" xmlns="http://www.w3.org/2000/svg">
<path d="M17.4612 12.1415C17.1601 11.6937 16.998 11.1752 16.998 10.6331V7.96986C16.998 5.613 15.6317 3.46825 13.5474 2.4548V2.33696C13.5474 1.22923 12.6443 0.310059 11.5558 0.310059H10.4443C9.35582 0.310059 8.45266 1.22923 8.45266 2.33696V2.4548C6.36843 3.44468 5.02526 5.58943 5.02526 7.96986V10.6567C5.02526 11.1988 4.86315 11.7173 4.5621 12.1651L3.70525 13.3906C3.40419 13.8384 3.35788 14.4041 3.61262 14.8755C3.86736 15.3468 4.33052 15.6532 4.86315 15.6532H7.4337C7.59581 17.5387 9.1474 19 11.0232 19C12.899 19 14.4506 17.5151 14.6127 15.6532H17.1833C17.7159 15.6532 18.2022 15.3468 18.4338 14.8755C18.6885 14.4041 18.6422 13.8149 18.3412 13.3906L17.4612 12.1415ZM11 17.3737C10.0043 17.3737 9.17056 16.6195 9.03161 15.6532H12.9916C12.8295 16.6195 11.9958 17.3737 11 17.3737ZM5.18737 14.027L5.83579 13.0842C6.32211 12.3772 6.60001 11.5287 6.60001 10.6567V7.96986C6.60001 6.08437 7.75792 4.411 9.51793 3.77464C9.84214 3.6568 10.0506 3.35041 10.0506 3.02045V2.36053C10.0506 2.14841 10.2358 1.95986 10.4443 1.95986H11.5558C11.7643 1.95986 11.9495 2.14841 11.9495 2.36053V3.02045C11.9495 3.37398 12.158 3.68037 12.4822 3.77464C14.219 4.411 15.4001 6.10794 15.4001 7.96986V10.6567C15.4001 11.5287 15.6548 12.3772 16.1643 13.0842L16.8127 14.027H5.18737Z" fill="#385B8B"/>
<path d="M2.7095 7.33301H0.787375C0.347371 7.33301 0 7.68654 0 8.13434C0 8.58214 0.347371 8.93567 0.787375 8.93567H2.7095C3.1495 8.93567 3.49687 8.58214 3.49687 8.13434C3.52003 7.71011 3.1495 7.33301 2.7095 7.33301Z" fill="#385B8B"/>
<path d="M1.2737 4.92892L3.03371 5.68312C3.12634 5.73026 3.24213 5.75382 3.33477 5.75382C3.65898 5.75382 3.93688 5.56528 4.07582 5.25888C4.23793 4.83465 4.05267 4.36328 3.63582 4.1983L1.87581 3.4441C1.45896 3.27912 0.995799 3.46767 0.833692 3.8919C0.671585 4.29257 0.85685 4.76394 1.2737 4.92892Z" fill="#385B8B"/>
<path d="M4.58577 2.76091C4.74788 2.92589 4.9563 2.9966 5.14157 2.9966C5.32683 2.9966 5.55841 2.92589 5.69736 2.76091C5.99841 2.45452 5.99841 1.93601 5.69736 1.60605L4.35419 0.239071C4.05313 -0.0673206 3.54366 -0.0673206 3.21944 0.239071C2.91839 0.545463 2.91839 1.06397 3.21944 1.39393L4.58577 2.76091Z" fill="#385B8B"/>
<path d="M16.8594 2.99624C17.0679 2.99624 17.2763 2.92554 17.4152 2.76056L18.7584 1.39358C19.0594 1.08718 19.0594 0.568675 18.7584 0.238714C18.4573 -0.0912466 17.9479 -0.067678 17.6236 0.238714L16.2805 1.60569C15.9794 1.91209 15.9794 2.4306 16.2805 2.76056C16.4426 2.92554 16.651 2.99624 16.8594 2.99624Z" fill="#385B8B"/>
<path d="M17.9245 5.23509C18.0403 5.54148 18.3413 5.73003 18.6655 5.73003C18.7582 5.73003 18.874 5.70646 18.9666 5.65932L20.7266 4.90513C21.1434 4.74015 21.3287 4.26878 21.1666 3.84454C21.0045 3.42031 20.5413 3.23176 20.1245 3.39674L18.3645 4.15093C17.9476 4.33948 17.7392 4.81085 17.9245 5.23509Z" fill="#385B8B"/>
<path d="M21.2124 7.33301H19.2903C18.8503 7.33301 18.5029 7.68654 18.5029 8.13434C18.5029 8.58214 18.8503 8.93567 19.2903 8.93567H21.2124C21.6524 8.93567 21.9998 8.58214 21.9998 8.13434C21.9998 7.71011 21.6524 7.33301 21.2124 7.33301Z" fill="#385B8B"/>
</svg>
