<svg width="160" height="160" viewBox="0 0 160 160" fill="none" xmlns="http://www.w3.org/2000/svg">
<path d="M159.334 143.75C163.193 136.113 152.164 97.9287 75.6921 97.9287C20.4946 97.9287 -4.83954 129.183 0.761338 145.023" fill="url(#paint0_radial_949_4509)"/>
<mask id="mask0_949_4509" style="mask-type:luminance" maskUnits="userSpaceOnUse" x="0" y="97" width="160" height="49">
<path d="M159.334 143.75C163.193 136.113 152.164 97.9287 75.6921 97.9287C20.4946 97.9287 -4.83954 129.183 0.761338 145.023" fill="white"/>
</mask>
<g mask="url(#mask0_949_4509)">
<ellipse opacity="0.671968" cx="63.8975" cy="119.342" rx="4.20561" ry="2.33601" fill="url(#paint1_linear_949_4509)"/>
<ellipse opacity="0.729957" cx="106.823" cy="115.776" rx="6.63551" ry="3.64417" fill="url(#paint2_linear_949_4509)"/>
<ellipse opacity="0.729957" cx="31.3084" cy="106.058" rx="6.63551" ry="3.64417" fill="url(#paint3_linear_949_4509)"/>
</g>
<g opacity="0.320685">
<ellipse cx="124.1" cy="34.2371" rx="4.48598" ry="4.48513" fill="url(#paint4_linear_949_4509)"/>
<path d="M121.286 30.6805C119.361 30.4091 117.954 30.6219 117.69 31.3477C117.266 32.5115 119.942 34.5539 123.667 35.9094C127.392 37.2649 130.755 37.4203 131.179 36.2565C131.446 35.5242 130.224 34.4996 128.547 33.4616" stroke="url(#paint5_linear_949_4509)" stroke-width="4.20561"/>
<path d="M128.596 34.2371C128.596 31.76 126.587 29.752 124.11 29.752C121.632 29.752 120.08 31.3357 119.76 33.1214C119.76 33.1214 122.339 34.7358 123.53 35.0828C123.909 35.1934 124.286 35.337 124.669 35.4643C125.098 35.6066 125.535 35.7322 125.977 35.8411C126.279 35.9156 126.693 36.0309 127.08 36.1028C127.591 36.1977 128.048 36.2401 128.084 36.2401C128.147 36.2401 128.216 35.958 128.359 35.6294C128.502 35.3008 128.596 34.2371 128.596 34.2371Z" fill="url(#paint6_linear_949_4509)"/>
</g>
<circle opacity="0.418364" cx="25.5379" cy="60.6976" r="5.23077" fill="url(#paint7_linear_949_4509)"/>
<ellipse opacity="0.5" cx="82.1537" cy="105.313" rx="15.6923" ry="4.30769" fill="url(#paint8_linear_949_4509)"/>
<path d="M76.1382 16.6074L77.873 17.2388L45.7757 105.425C45.6014 105.904 45.0717 106.151 44.5926 105.977C44.1135 105.803 43.8665 105.273 44.0409 104.794L76.1382 16.6074Z" fill="#D8D8D8"/>
<path d="M76.0947 16.6504L89.7175 25.6259C90.8373 26.3637 92.0882 26.8801 93.4025 27.1472C100.515 28.5923 105.152 35.4771 103.817 42.611L100.599 59.8155C100.584 59.8952 100.471 59.8975 100.452 59.8188C98.9587 53.7971 93.2775 49.7435 87.1008 50.3264C84.2869 50.592 81.4936 49.6424 79.4245 47.7168L68.4911 37.5413L76.0947 16.6504Z" fill="#E57A77"/>
<circle cx="76.8572" cy="16.3539" r="1.23077" transform="rotate(20 76.8572 16.3539)" fill="#D8D8D8"/>
<path d="M56.2471 69.351C56.2471 69.351 57.1701 68.8895 57.1701 69.0433C57.1701 69.1972 57.1701 70.8895 57.1701 70.8895L56.5548 71.1972L56.2471 69.351Z" fill="#FFE9E9"/>
<path d="M73.729 100.166C73.729 100.166 73.4186 99.0346 72.6019 98.9611C71.7853 98.8877 69.4848 101.321 69.004 102.326C68.5231 103.331 69.8366 104.739 71.3362 103.386C72.8358 102.032 73.729 100.166 73.729 100.166Z" fill="#677285"/>
<path d="M74.6907 103.469L73.7527 100.852C73.3751 99.7979 71.9392 99.6638 71.3729 100.629C71.2599 100.822 71.1973 101.038 71.2006 101.262C71.2164 102.32 71.3892 105.522 72.8893 105.953C74.6907 106.472 74.6907 103.469 74.6907 103.469Z" fill="url(#paint9_linear_949_4509)"/>
<path d="M86.2666 100.166C86.2666 100.166 86.577 99.0346 87.3937 98.9611C88.2103 98.8877 90.5108 101.321 90.9916 102.326C91.4725 103.331 90.159 104.739 88.6594 103.386C87.1598 102.032 86.2666 100.166 86.2666 100.166Z" fill="#677285"/>
<path d="M85.3064 103.468L86.2443 100.851C86.622 99.7969 88.0578 99.6628 88.6241 100.628C88.7372 100.821 88.7998 101.037 88.7964 101.261C88.7806 102.319 88.6079 105.521 87.1078 105.952C85.3064 106.471 85.3064 103.468 85.3064 103.468Z" fill="url(#paint10_linear_949_4509)"/>
<path d="M74.9549 95.6094C74.9549 95.6094 74.4403 96.6201 74.4403 97.3306C73.9256 98.4832 73.0778 100.034 71.6096 103.269C70.9044 104.823 71.6483 105.54 72.6119 105.865C74.0734 106.359 75.5941 105.588 76.7871 104.61L79.8586 102.092L84.5319 105.951C85.3796 106.651 86.6061 106.646 87.4482 105.939C88.3143 105.213 88.5406 103.947 88.0414 102.933C87.4805 101.793 86.6478 100.007 85.5056 97.3306C85.5056 96.6274 85.0567 95.9532 85.0567 95.9532L74.9549 95.6094Z" fill="url(#paint11_linear_949_4509)"/>
<path d="M86.1543 87.6102C86.9937 88.8363 86.7697 91.9019 86.7697 91.9019H84.3082L85.2199 98.0316C85.3096 98.6343 84.9719 99.218 84.3971 99.4203C83.1414 99.8621 80.9467 100.565 79.4712 100.652C77.9901 100.74 75.5983 100.074 74.2269 99.6421C73.614 99.4489 73.2705 98.8292 73.4568 98.2142C73.7983 97.0867 74.5108 95.0373 75.9266 91.9019C76.4402 92.5027 73.5389 91.9019 73.5389 91.9019C73.5389 91.9019 73.72 89.172 74.462 87.6102C75.204 86.0484 76.9235 85.0051 76.9235 85.0051L81.2717 84.3447C81.2717 84.3447 83.0774 84.6974 84.0005 85.1892C84.9235 85.6809 85.3149 86.384 86.1543 87.6102Z" fill="url(#paint12_linear_949_4509)"/>
<path d="M86.5362 91.8901L86.4384 94.8062L86.108 96.2654L83.8357 105.639L84.1981 106.421L84.4323 107.436L84.1981 108.082L83.5827 107.853L82.3519 106.852L82.206 106.414C82.103 106.105 82.1353 105.767 82.2951 105.483L82.7815 104.619L84.4323 95.8676L84.2662 92.0004L86.5362 91.8901Z" fill="#FDE7E6"/>
<path d="M73.6004 92.0006L73.8661 94.8063L74.1965 96.2655L76.4688 105.639L76.1064 106.421L75.8722 107.436L76.1064 108.083L76.7218 107.853L77.9525 106.852L78.0985 106.414C78.2015 106.105 78.1691 105.767 78.0094 105.483L77.523 104.619L75.8722 95.8678L76.0004 92.0006L73.6004 92.0006Z" fill="#FDE7E6"/>
<path fill-rule="evenodd" clip-rule="evenodd" d="M81.0081 81.959H78.5845V85.2073H81.0081V81.959ZM79.5539 87.0664C79.5539 86.6052 78.5845 85.2074 78.5845 85.2074H81.0081C81.0081 85.2074 79.5539 87.5276 79.5539 87.0664Z" fill="#FECECD"/>
<ellipse cx="79.6562" cy="81.4207" rx="2.14885" ry="3.2" fill="#FFE9E9"/>
<path fill-rule="evenodd" clip-rule="evenodd" d="M77.2976 81.9542C77.4695 81.3443 77.4695 79.9991 77.8133 79.9553C78.1572 79.9114 78.8448 80.1661 79.5324 79.6719C79.8762 79.4007 80.0481 79.3667 80.0481 79.2305C81.7672 79.5551 80.7391 80.5346 81.5953 81.6137C81.6846 81.7262 81.9391 81.6137 81.9391 81.6137C81.9391 81.6137 81.9391 78.9568 81.7672 78.7198C81.5953 78.4828 80.9077 77.5282 80.5639 78.2091C80.5639 77.8686 79.8762 77.5174 79.1886 77.7781C78.501 78.0389 77.4695 78.5496 77.2976 79.2305C77.1257 79.9114 76.9538 81.2732 77.2976 81.9542Z" fill="#513450"/>
<defs>
<radialGradient id="paint0_radial_949_4509" cx="0" cy="0" r="1" gradientUnits="userSpaceOnUse" gradientTransform="translate(69.3925 114.261) rotate(-90) scale(27.3815 285.972)">
<stop stop-color="#EBEDF0" stop-opacity="0.24"/>
<stop offset="0.536775" stop-color="#EBEDF0" stop-opacity="0.845525"/>
<stop offset="1" stop-color="#E0E4E7" stop-opacity="0.01"/>
</radialGradient>
<linearGradient id="paint1_linear_949_4509" x1="60.5124" y1="118.723" x2="61.7936" y2="121.463" gradientUnits="userSpaceOnUse">
<stop stop-color="#E1E7EA"/>
<stop offset="1" stop-color="#D0D6DC"/>
</linearGradient>
<linearGradient id="paint2_linear_949_4509" x1="101.251" y1="115.435" x2="103.596" y2="120.325" gradientUnits="userSpaceOnUse">
<stop stop-color="#E1E7EA"/>
<stop offset="1" stop-color="#D0D6DC"/>
</linearGradient>
<linearGradient id="paint3_linear_949_4509" x1="27.0774" y1="106.117" x2="28.404" y2="111.402" gradientUnits="userSpaceOnUse">
<stop stop-color="#FBFBFB"/>
<stop offset="1" stop-color="#D9DFE3"/>
</linearGradient>
<linearGradient id="paint4_linear_949_4509" x1="117.972" y1="31.1486" x2="120.215" y2="38.9034" gradientUnits="userSpaceOnUse">
<stop stop-color="#ECECEC"/>
<stop offset="0.717538" stop-color="#E1E7EA"/>
<stop offset="1" stop-color="#BCC3CA"/>
</linearGradient>
<linearGradient id="paint5_linear_949_4509" x1="121.107" y1="34.3345" x2="130.619" y2="37.7963" gradientUnits="userSpaceOnUse">
<stop stop-color="#BAC6D2"/>
<stop offset="1" stop-color="#7F8F9F"/>
</linearGradient>
<linearGradient id="paint6_linear_949_4509" x1="122.451" y1="33.8511" x2="123.918" y2="36.8145" gradientUnits="userSpaceOnUse">
<stop stop-color="#E1E7EA"/>
<stop offset="1" stop-color="#D0D6DC"/>
</linearGradient>
<linearGradient id="paint7_linear_949_4509" x1="32.4146" y1="62.2501" x2="27.1915" y2="53.4292" gradientUnits="userSpaceOnUse">
<stop stop-color="#DAE2E6"/>
<stop offset="0.58" stop-color="#E3EBEF"/>
<stop offset="1" stop-color="#EDF6F9"/>
</linearGradient>
<linearGradient id="paint8_linear_949_4509" x1="70.3749" y1="105.823" x2="79.1889" y2="119.535" gradientUnits="userSpaceOnUse">
<stop stop-color="#C4CDD1"/>
<stop offset="1" stop-color="#C6CFD3" stop-opacity="0.01"/>
</linearGradient>
<linearGradient id="paint9_linear_949_4509" x1="74.6907" y1="106.03" x2="74.6907" y2="99.1982" gradientUnits="userSpaceOnUse">
<stop stop-color="#7A87AF"/>
<stop offset="1" stop-color="#444F77"/>
</linearGradient>
<linearGradient id="paint10_linear_949_4509" x1="85.3064" y1="106.029" x2="85.3064" y2="99.1973" gradientUnits="userSpaceOnUse">
<stop stop-color="#7A87AF"/>
<stop offset="1" stop-color="#444F77"/>
</linearGradient>
<linearGradient id="paint11_linear_949_4509" x1="88.3308" y1="106.456" x2="88.3308" y2="95.6094" gradientUnits="userSpaceOnUse">
<stop stop-color="#7A87AF"/>
<stop offset="1" stop-color="#444F77"/>
</linearGradient>
<linearGradient id="paint12_linear_949_4509" x1="93.6603" y1="91.7954" x2="79.6766" y2="106.784" gradientUnits="userSpaceOnUse">
<stop stop-color="#E5E9F0"/>
<stop offset="1" stop-color="#D2DAE8"/>
</linearGradient>
</defs>
</svg>
