<svg width="18" height="18" viewBox="0 0 18 18" fill="none" xmlns="http://www.w3.org/2000/svg">
<path d="M13.3807 6.07229L13.4819 5.98554C14.494 5.04578 15.8675 3.75904 15.8675 2.11084V0H3V2.11084C3 3.75904 4.37349 5.04578 5.38554 5.98554L5.48675 6.07229C6.51325 7.02651 7.01928 7.90843 7.07711 8.80482C7.1494 10.0048 6.3253 10.959 5.83373 11.4217C4.50361 12.6506 3 14.053 3 15.7157V18H15.8675V15.7157C15.8675 14.053 14.3639 12.6651 13.0337 11.4217C12.5422 10.959 11.7181 10.0048 11.7904 8.80482C11.8482 7.90843 12.3542 7.02651 13.3807 6.07229ZM12.2675 12.2458C13.3663 13.2723 14.7398 14.5446 14.7398 15.7157V16.8723H4.12771V15.7157C4.12771 14.5446 5.5012 13.2723 6.6 12.2458C7.71325 11.2193 8.27711 9.9759 8.20482 8.74699C8.13253 7.54699 7.49639 6.40482 6.25301 5.24819L6.15181 5.16145C5.24096 4.32289 4.12771 3.26747 4.12771 2.11084V1.11325H14.7542V2.11084C14.7542 3.26747 13.6265 4.30843 12.7301 5.16145L12.6145 5.24819C11.3711 6.40482 10.7349 7.54699 10.6627 8.73253C10.5904 9.96145 11.1542 11.2193 12.2675 12.2458Z" fill="#787878"/>
<path d="M7.82891 13.1424C7.75662 13.2147 7.68433 13.2725 7.61204 13.3448C7.2506 13.6773 6.48433 14.3858 6.00722 14.9785C5.8771 15.1376 5.99277 15.3689 6.19518 15.3689H12.6434C12.8458 15.3689 12.9614 15.1376 12.8313 14.9785C12.3542 14.3858 11.5879 13.6773 11.2265 13.3448C11.1542 13.2725 11.0819 13.2147 11.0096 13.1424C10.1566 12.2605 8.71084 12.2605 7.82891 13.1424Z" fill="#787878"/>
<path d="M11.5884 4.14915L11.6896 4.0624C12.0076 3.75879 12.4992 3.29614 12.8462 2.87686C12.9185 2.79011 12.8462 2.65999 12.7305 2.67445C10.533 3.07927 8.33536 3.07927 6.13777 2.67445C6.02211 2.65999 5.94982 2.79011 6.02211 2.87686C6.3691 3.31059 6.86066 3.75879 7.17873 4.0624L7.27994 4.16361C8.08958 4.91541 8.68235 5.66722 9.08717 6.4624C9.23175 6.75156 9.63657 6.75156 9.78114 6.4624C10.186 5.66722 10.7932 4.90095 11.5884 4.14915Z" fill="#787878"/>
</svg>
