<svg width="14" height="14" viewBox="0 0 14 14" fill="none" xmlns="http://www.w3.org/2000/svg">
<path d="M7 14C3.13401 14 0 10.866 0 7C0 3.13401 3.13401 0 7 0C10.866 0 14 3.13401 14 7C14 10.866 10.866 14 7 14ZM4.38997 6.82974C4.08883 6.54533 3.61415 6.55889 3.32974 6.86003C3.04533 7.16117 3.05889 7.63585 3.36003 7.92026L5.61003 10.0453C5.93178 10.3491 6.44531 10.3098 6.71701 9.96046L10.217 5.46046C10.4713 5.1335 10.4124 4.66229 10.0855 4.40799C9.7585 4.15368 9.28729 4.21258 9.03299 4.53954L6.03981 8.38792L4.38997 6.82974Z" fill="#4ACB5F"/>
</svg>
