<svg width="58" height="62" viewBox="0 0 58 62" fill="none" xmlns="http://www.w3.org/2000/svg">
<path d="M26.94 41.6201V45.6201C26.94 46.1506 26.7293 46.6593 26.3542 47.0344C25.9791 47.4094 25.4704 47.6201 24.94 47.6201H20.19C19.6596 47.6201 19.1509 47.4094 18.7758 47.0344C18.4007 46.6593 18.19 46.1506 18.19 45.6201V41.7501C19.2407 41.8951 20.2994 41.9752 21.36 41.9902H21.96C23.6268 41.9886 25.2913 41.8649 26.94 41.6201ZM57.59 38.2601C57.59 37.5361 57.3024 36.8417 56.7904 36.3297C56.2784 35.8178 55.584 35.5301 54.86 35.5301H53.76C54.4867 35.5301 55.1836 35.2415 55.6975 34.7276C56.2113 34.2138 56.5 33.5168 56.5 32.7901C56.5 32.0635 56.2113 31.3665 55.6975 30.8527C55.1836 30.3388 54.4867 30.0501 53.76 30.0501H51.57C52.2389 30.0561 52.8868 29.8163 53.3905 29.3762C53.8943 28.936 54.219 28.3263 54.3028 27.6626C54.3867 26.9989 54.224 26.3275 53.8456 25.7759C53.4672 25.2243 52.8994 24.8308 52.25 24.6702L50.03 23.8702C47.1237 22.9063 44.091 22.3773 41.03 22.3001C41.3802 23.1881 41.453 24.1613 41.2388 25.0914C41.0246 26.0216 40.5334 26.8649 39.83 27.5102C40.3249 28.5921 40.3939 29.8208 40.0233 30.9514C39.6526 32.0819 38.8695 33.0313 37.83 33.6101C38.0139 34.2044 38.0788 34.829 38.021 35.4483C37.9631 36.0677 37.7837 36.6695 37.493 37.2194C37.2022 37.7693 36.8059 38.2564 36.3266 38.6529C35.8474 39.0495 35.2946 39.3475 34.7 39.5301L32.55 40.3001C31.1823 40.7505 29.7858 41.1079 28.37 41.3701V45.6502C28.3721 46.1738 28.263 46.6918 28.05 47.1701L28.87 48.5201C29.7 50.0001 32.29 51.0001 32.29 51.0001C32.8548 51.1747 33.3791 51.46 33.8324 51.8395C34.2857 52.2189 34.6588 52.6849 34.93 53.2101L38.59 59.8001C39.076 60.6906 39.8884 61.358 40.8562 61.6619C41.8241 61.9659 42.8721 61.8828 43.78 61.4301C44.6603 60.9965 45.3459 60.2484 45.7014 59.3338C46.0569 58.4192 46.0564 57.4044 45.7 56.4902L42.28 47.5701H52.13C52.5616 47.5702 52.9889 47.485 53.3875 47.3195C53.7861 47.1541 54.1481 46.9116 54.4529 46.6059C54.7576 46.3003 54.999 45.9375 55.1632 45.5384C55.3274 45.1393 55.4113 44.7117 55.41 44.2801V43.7402C55.41 43.0186 55.1255 42.3262 54.6181 41.8132C54.1107 41.3002 53.4215 41.008 52.7 41.0001H54.89C55.6106 40.9922 56.2988 40.6997 56.8046 40.1865C57.3103 39.6732 57.5927 38.9808 57.59 38.2601ZM8.75 36.8001V16.7201C8.75 16.1897 8.53929 15.681 8.16421 15.3059C7.78914 14.9309 7.28043 14.7202 6.75 14.7202H2C1.46957 14.7202 0.960859 14.9309 0.585786 15.3059C0.210714 15.681 0 16.1897 0 16.7201V36.8001C0 37.3306 0.210714 37.8393 0.585786 38.2144C0.960859 38.5894 1.46957 38.8001 2 38.8001H6.75C7.28043 38.8001 7.78914 38.5894 8.16421 38.2144C8.53929 37.8393 8.75 37.3306 8.75 36.8001ZM36.7 26.7602H35.6C36.3267 26.7602 37.0236 27.0488 37.5375 27.5627C38.0513 28.0765 38.34 28.7735 38.34 29.5002C38.3374 30.2251 38.0475 30.9195 37.5339 31.4312C37.0204 31.9429 36.325 32.2302 35.6 32.2302H33.38C34.0445 32.2341 34.6849 32.4794 35.182 32.9203C35.6791 33.3613 35.999 33.9679 36.0821 34.6271C36.1653 35.2864 36.0061 35.9534 35.6341 36.504C35.2621 37.0546 34.7027 37.4513 34.06 37.6201L31.84 38.4201C28.4712 39.5344 24.9376 40.0687 21.39 40.0001C17.4743 39.892 13.6275 38.9439 10.11 37.2201C10.11 37.1101 10.11 37.0001 10.11 36.8801V16.6402C10.1106 16.1177 10.0051 15.6006 9.8 15.1202L10.61 13.7602C11.5 12.2802 14.07 11.3202 14.07 11.3202C14.6343 11.1443 15.1577 10.8573 15.6094 10.476C16.0611 10.0947 16.4319 9.62693 16.7 9.10015L20.4 2.52015C20.8823 1.62596 21.6946 0.955299 22.6639 0.650874C23.6332 0.346449 24.683 0.432297 25.59 0.89015C26.4614 1.32506 27.1397 2.06878 27.4928 2.97645C27.8459 3.88411 27.8485 4.89071 27.5 5.80015L24.08 14.7202H33.93C34.7999 14.7202 35.6342 15.0657 36.2493 15.6808C36.8644 16.296 37.21 17.1302 37.21 18.0002V18.5501C37.21 19.2751 36.9227 19.9705 36.411 20.4841C35.8993 20.9977 35.205 21.2875 34.48 21.2902H36.7C37.3968 21.3323 38.0512 21.6388 38.5297 22.1471C39.0081 22.6554 39.2745 23.3271 39.2745 24.0252C39.2745 24.7232 39.0081 25.3949 38.5297 25.9032C38.0512 26.4115 37.3968 26.718 36.7 26.7602ZM45.31 6.53015L44.31 8.62015C44.2382 8.75643 44.1358 8.87427 44.0109 8.96447C43.886 9.05467 43.742 9.11479 43.59 9.14015L41.28 9.48015C41.1095 9.51312 40.9506 9.58991 40.8188 9.70295C40.687 9.816 40.5869 9.96142 40.5284 10.1249C40.4699 10.2884 40.4549 10.4642 40.485 10.6353C40.5151 10.8063 40.5892 10.9665 40.7 11.1002L42.37 12.7302C42.4795 12.8403 42.5618 12.9745 42.6104 13.1221C42.659 13.2696 42.6726 13.4265 42.65 13.5802L42.25 15.8801C42.237 16.0506 42.2678 16.2215 42.3397 16.3766C42.4115 16.5317 42.5219 16.6658 42.6603 16.7661C42.7987 16.8664 42.9605 16.9296 43.1303 16.9495C43.3001 16.9695 43.4721 16.9456 43.63 16.8801L45.7 15.7902C45.8383 15.7214 45.9906 15.6857 46.145 15.6857C46.2994 15.6857 46.4517 15.7214 46.59 15.7902L48.7 16.8801C48.8579 16.9456 49.0299 16.9695 49.1997 16.9495C49.3695 16.9296 49.5313 16.8664 49.6697 16.7661C49.8081 16.6658 49.9185 16.5317 49.9903 16.3766C50.0622 16.2215 50.093 16.0506 50.08 15.8801L49.7 13.5802C49.6762 13.4272 49.6881 13.2709 49.735 13.1234C49.7818 12.9759 49.8623 12.8413 49.97 12.7302L51.6 11.1002C51.7107 10.9705 51.7864 10.8147 51.82 10.6476C51.8535 10.4804 51.8438 10.3075 51.7917 10.1452C51.7396 9.98286 51.6468 9.83655 51.5223 9.72016C51.3977 9.60377 51.2455 9.52115 51.08 9.48015L48.77 9.14015C48.618 9.11479 48.474 9.05467 48.3491 8.96447C48.2242 8.87427 48.1218 8.75643 48.05 8.62015L47.05 6.53015C46.9628 6.37625 46.8363 6.24824 46.6835 6.15918C46.5306 6.07013 46.3569 6.0232 46.18 6.0232C46.0031 6.0232 45.8294 6.07013 45.6765 6.15918C45.5237 6.24824 45.3972 6.37625 45.31 6.53015ZM8.31 46.5301L7.31 48.6201C7.23815 48.7564 7.13579 48.8743 7.0109 48.9645C6.886 49.0547 6.74196 49.1148 6.59 49.1401L4.28 49.4801C4.10953 49.5131 3.95058 49.5899 3.81879 49.703C3.68701 49.816 3.58692 49.9614 3.5284 50.1249C3.46987 50.2884 3.45492 50.4642 3.48501 50.6353C3.51509 50.8063 3.58919 50.9665 3.7 51.1001L5.37 52.7301C5.47948 52.8403 5.56179 52.9745 5.61039 53.1221C5.65899 53.2696 5.67255 53.4265 5.65 53.5802L5.25 55.8801C5.23697 56.0506 5.26785 56.2215 5.33968 56.3766C5.41152 56.5317 5.52191 56.6658 5.66032 56.7661C5.79873 56.8664 5.96054 56.9296 6.13029 56.9495C6.30005 56.9695 6.4721 56.9456 6.63 56.8801L8.7 55.7901C8.83828 55.7214 8.99059 55.6857 9.145 55.6857C9.29941 55.6857 9.45172 55.7214 9.59 55.7901L11.7 56.8801C11.8579 56.9456 12.0299 56.9695 12.1997 56.9495C12.3695 56.9296 12.5313 56.8664 12.6697 56.7661C12.8081 56.6658 12.9185 56.5317 12.9903 56.3766C13.0622 56.2215 13.093 56.0506 13.08 55.8801L12.7 53.5802C12.6762 53.4272 12.6881 53.2709 12.735 53.1234C12.7818 52.9759 12.8623 52.8413 12.97 52.7301L14.6 51.1001C14.7107 50.9705 14.7864 50.8147 14.82 50.6476C14.8535 50.4804 14.8438 50.3075 14.7917 50.1452C14.7396 49.9829 14.6468 49.8366 14.5223 49.7202C14.3977 49.6038 14.2455 49.5211 14.08 49.4801L11.77 49.1401C11.618 49.1148 11.474 49.0547 11.3491 48.9645C11.2242 48.8743 11.1218 48.7564 11.05 48.6201L10.05 46.5301C9.96278 46.3763 9.8363 46.2482 9.68346 46.1592C9.53062 46.0701 9.35689 46.0232 9.18 46.0232C9.00311 46.0232 8.82938 46.0701 8.67654 46.1592C8.5237 46.2482 8.39722 46.3763 8.31 46.5301Z" fill="#BDCCFF"/>
</svg>
