<svg width="576" height="492" viewBox="0 0 576 492" fill="none" xmlns="http://www.w3.org/2000/svg">
<g id="No Internet">
<g id="circle">
<path id="Stroke 1" d="M22.3389 226.166V231.208" stroke="#D2D8DF" stroke-width="2.921" stroke-linecap="round"/>
<g id="Group 8">
<path id="Stroke 2" d="M11.4492 228.894L15.4131 233.135" stroke="#D2D8DF" stroke-width="2.921" stroke-linecap="round"/>
<path id="Stroke 4" d="M6.80859 240.185H12.4134" stroke="#D2D8DF" stroke-width="2.921" stroke-linecap="round"/>
<path id="Stroke 6" d="M10.9893 251.674L14.9531 247.433" stroke="#D2D8DF" stroke-width="2.921" stroke-linecap="round"/>
</g>
<path id="Stroke 9" d="M22.3389 253.052V248.01" stroke="#D2D8DF" stroke-width="2.921" stroke-linecap="round"/>
<path id="Stroke 10" d="M30.4243 249.689L27.1904 246.328" stroke="#D2D8DF" stroke-width="2.921" stroke-linecap="round"/>
<path id="Stroke 11" d="M36.8899 241.289H32.0391" stroke="#D2D8DF" stroke-width="2.921" stroke-linecap="round"/>
<path id="Stroke 12" d="M33.6558 229.523L30.4219 232.885" stroke="#D2D8DF" stroke-width="2.921" stroke-linecap="round"/>
<path id="Stroke 13" d="M282.662 6V9.36125" stroke="#D2D8DF" stroke-width="2.921" stroke-linecap="round"/>
<path id="Stroke 15" d="M272.965 16.0811H276.199" stroke="#D2D8DF" stroke-width="2.921" stroke-linecap="round"/>
<path id="Stroke 16" d="M282.662 26.1659V22.8047" stroke="#D2D8DF" stroke-width="2.921" stroke-linecap="round"/>
<path id="Stroke 17" d="M290.756 16.0811H287.522" stroke="#D2D8DF" stroke-width="2.921" stroke-linecap="round"/>
<path id="Stroke 18" d="M95.0977 147.17V152.212" stroke="#D2D8DF" stroke-width="2.921" stroke-linecap="round"/>
<path id="Stroke 19" d="M80.5459 162.299H85.3967" stroke="#D2D8DF" stroke-width="2.921" stroke-linecap="round"/>
<path id="Stroke 20" d="M95.0977 175.743V170.701" stroke="#D2D8DF" stroke-width="2.921" stroke-linecap="round"/>
<path id="Stroke 21" d="M108.034 162.299H103.184" stroke="#D2D8DF" stroke-width="2.921" stroke-linecap="round"/>
<g id="Group 42">
<path id="Stroke 22" d="M443.152 330.425C447.017 330.425 450.151 333.683 450.151 337.7C450.151 341.719 447.017 344.976 443.152 344.976C439.288 344.976 436.154 341.719 436.154 337.7" stroke="#D2D8DF" stroke-width="2.921" stroke-linecap="round"/>
<path id="Stroke 24" d="M475.097 426.073C475.962 432.346 471.773 438.161 465.74 439.06C459.705 439.957 454.113 435.602 453.248 429.329C452.383 423.057 456.573 417.243 462.606 416.344" stroke="#D2D8DF" stroke-width="2.921" stroke-linecap="round"/>
<path id="Fill 26" fill-rule="evenodd" clip-rule="evenodd" d="M475.184 264.412C479.339 263.064 485.708 257.783 487.183 252.1C488.52 257.123 494.124 263.064 499.182 263.514C493.489 265.609 488.046 271.833 487.183 276.722C486.595 271.739 479.067 265.138 475.184 264.412Z" fill="#EBECEE"/>
<path id="Fill 28" fill-rule="evenodd" clip-rule="evenodd" d="M48.6533 328.187C50.7316 327.513 53.915 324.873 54.6521 322.031C55.3206 324.542 58.1224 327.513 60.6509 327.738C57.8053 328.785 55.0845 331.897 54.6521 334.342C54.3584 331.85 50.5943 328.549 48.6533 328.187Z" fill="#EBECEE"/>
<path id="Fill 30" fill-rule="evenodd" clip-rule="evenodd" d="M87.2209 94.3935C87.2209 97.5104 84.7912 100.035 81.7945 100.035C78.7965 100.035 76.3682 97.5104 76.3682 94.3935C76.3682 91.278 78.7965 88.752 81.7945 88.752C84.7912 88.752 87.2209 91.278 87.2209 94.3935Z" fill="#D1D8DF"/>
<path id="Fill 32" fill-rule="evenodd" clip-rule="evenodd" d="M407.663 448.601C407.663 453.809 403.601 458.03 398.593 458.03C393.583 458.03 389.522 453.809 389.522 448.601C389.522 443.393 393.583 439.172 398.593 439.172C403.601 439.172 407.663 443.393 407.663 448.601Z" fill="#EBECEE"/>
<path id="Fill 34" fill-rule="evenodd" clip-rule="evenodd" d="M575.194 83.9973C575.194 88.1289 571.974 91.477 568.001 91.477C564.027 91.477 560.807 88.1289 560.807 83.9973C560.807 79.8657 564.027 76.5176 568.001 76.5176C571.974 76.5176 575.194 79.8657 575.194 83.9973Z" fill="#EBECEE"/>
<path id="Stroke 36" fill-rule="evenodd" clip-rule="evenodd" d="M188.633 433.323C188.633 435.927 186.603 438.038 184.098 438.038C181.594 438.038 179.563 435.927 179.563 433.323C179.563 430.718 181.594 428.607 184.098 428.607C186.603 428.607 188.633 430.718 188.633 433.323Z" stroke="#D2D8DF" stroke-width="2.921" stroke-linecap="round"/>
<path id="Stroke 38" fill-rule="evenodd" clip-rule="evenodd" d="M185.934 58.1503C185.934 61.2672 183.504 63.7919 180.507 63.7919C177.511 63.7919 175.081 61.2672 175.081 58.1503C175.081 55.0349 177.511 52.5088 180.507 52.5088C183.504 52.5088 185.934 55.0349 185.934 58.1503Z" stroke="#D2D8DF" stroke-width="2.921" stroke-linecap="round"/>
<path id="Stroke 40" fill-rule="evenodd" clip-rule="evenodd" d="M324.349 485.544C320.881 486.915 317 485.104 315.681 481.501C314.362 477.896 316.103 473.86 319.571 472.49C323.038 471.118 326.918 472.928 328.237 476.533C329.558 480.138 327.816 484.172 324.349 485.544Z" stroke="#D2D8DF" stroke-width="2.921" stroke-linecap="round"/>
</g>
</g>
<path id="Fill 1" fill-rule="evenodd" clip-rule="evenodd" d="M246.381 368.935H278.615L261.73 422.659L336.946 346.678H291.662L316.991 235.389L246.381 368.935Z" fill="url(#paint0_linear_945_3493)"/>
<g id="Group 6">
<path id="Fill 2" fill-rule="evenodd" clip-rule="evenodd" d="M439.203 201.627C431.255 195.981 421.976 192.088 411.921 190.535C406.42 142.481 365.627 105.161 316.1 105.161C285.237 105.161 257.766 119.662 240.106 142.221C233.909 140.145 227.294 139.012 220.397 139.012C188.731 139.012 162.617 162.749 158.847 193.399C132.641 201.523 113.613 225.955 113.613 254.824C113.613 290.235 142.234 318.952 177.612 319.118C179.433 319.364 181.285 319.507 183.174 319.507H393.449C397.332 320.234 401.315 320.631 405.407 320.631C440.925 320.631 469.708 291.843 469.708 256.33C469.708 233.215 457.508 212.958 439.203 201.627Z" fill="#F1F2F7"/>
<path id="Fill 4" fill-rule="evenodd" clip-rule="evenodd" d="M260.45 165.2C253.009 162.181 244.728 160.485 235.999 160.485C203.673 160.485 177.478 183.559 177.478 212.017C177.478 214.896 177.752 217.714 178.269 220.459C203.403 184.955 220.721 170.855 260.45 165.2Z" fill="#E0E2EE"/>
</g>
</g>
<defs>
<linearGradient id="paint0_linear_945_3493" x1="291.664" y1="141.753" x2="144.865" y2="212.746" gradientUnits="userSpaceOnUse">
<stop stop-color="#FF8960"/>
<stop offset="1" stop-color="#FF62A5"/>
</linearGradient>
</defs>
</svg>
